<svg xmlns="http://www.w3.org/2000/svg" viewBox="0 0 100 100" fill="none">
  <path
    d="M50 15
       C35 15 22 25 18 40
       C14 55 20 68 30 75
       C25 65 24 52 30 42
       C36 32 48 28 58 32
       C52 28 50 15 50 15Z"
    fill="#111111"
  />
  <path
    d="M85 50
       C85 35 75 22 60 18
       C45 14 32 20 25 30
       C35 25 48 24 58 30
       C68 36 72 48 68 58
       C72 52 85 50 85 50Z"
    fill="#111111"
  />
  <path
    d="M50 85
       C65 85 78 75 82 60
       C86 45 80 32 70 25
       C75 35 76 48 70 58
       C64 68 52 72 42 68
       C48 72 50 85 50 85Z"
    fill="#111111"
  />
  <path
    d="M15 50
       C15 65 25 78 40 82
       C55 86 68 80 75 70
       C65 75 52 76 42 70
       C32 64 28 52 32 42
       C28 48 15 50 15 50Z"
    fill="#111111"
  />
</svg>
